<svg xmlns="http://www.w3.org/2000/svg" xmlns:xlink="http://www.w3.org/1999/xlink" version="1.1" width="177.83782032435568" height="177.83782032435562" viewBox="115.39283338244024 129.43087111855687 177.83782032435568 177.83782032435562" xml:space="preserve">
<desc>Created with Fabric.js 5.3.0</desc>
<defs>
</defs>
<g transform="matrix(1 0 0 1 204.3117435446 218.3497812807)" id="PTL1uNCTLygi7fRBFOaNu">
<path style="stroke: rgb(186,22,253); stroke-width: 0; stroke-dasharray: none; stroke-linecap: butt; stroke-dashoffset: 0; stroke-linejoin: miter; stroke-miterlimit: 4; fill: rgb(25,14,100); fill-rule: nonzero; opacity: 1;" transform=" translate(-88.9189101622, -88.9189101622)" d="M 88.91891 0 C 138.00215 0 177.83782 39.83567 177.83782 88.91891 C 177.83782 138.00215 138.00215 177.83782 88.91891 177.83782 C 39.83566999999999 177.83782 0 138.00215 0 88.91891 C 0 39.83566999999999 39.83567 0 88.91891 0 z" stroke-linecap="round"/>
</g>
<g transform="matrix(1 0 0 1 205.554 222.1025)" id="F9rSoaL7zM37RwFHeGYYg">
<path style="stroke: none; stroke-width: 1; stroke-dasharray: none; stroke-linecap: butt; stroke-dashoffset: 0; stroke-linejoin: miter; stroke-miterlimit: 4; fill: rgb(255,255,255); fill-rule: nonzero; opacity: 1;" transform=" translate(-205.554, -222.1025)" d="M 175.577 249.969 L 161.515 249.969 Q 162.124 248.141 162.124 241.438 L 162.124 241.438 L 162.124 228.407 Q 154.015 210.548 151.765 206.118 Q 149.515 201.688 147.968 199.11 L 147.968 199.11 Q 143.093 190.86 142.085 189.641 Q 141.077 188.423 140.046 187.626 L 140.046 187.626 L 156.218 187.626 Q 156.734 188.563 157.624 190.391 L 157.624 190.391 L 168.968 214.344 Q 169.765 212.376 170.843 209.938 L 170.843 209.938 Q 181.062 187.954 181.202 187.626 L 181.202 187.626 L 196.671 187.626 Q 194.28 189.548 190.812 195.688 L 190.812 195.688 Q 189.734 197.516 188.655 199.86 L 188.655 199.86 L 178.062 221.938 Q 176.28 225.923 175.015 229.11 L 175.015 229.11 L 175.015 242.563 Q 175.015 247.251 175.577 249.969 L 175.577 249.969 Z M 239.327 250.251 L 239.327 250.251 Q 235.39 251.141 230.234 251.141 Q 225.077 251.141 219.335 248.891 Q 213.593 246.641 209.327 242.563 L 209.327 242.563 Q 200.14 233.798 200.14 220.11 L 200.14 220.11 Q 200.14 206.235 209.046 196.579 L 209.046 196.579 Q 218.421 186.454 232.952 186.454 L 232.952 186.454 Q 246.171 186.454 254.89 194.798 L 254.89 194.798 Q 264.124 203.704 264.124 218.141 L 264.124 218.141 Q 264.124 229.719 257.562 238.391 L 257.562 238.391 Q 255.499 241.11 252.968 243.266 L 252.968 243.266 Q 254.655 243.735 257.046 244.813 L 257.046 244.813 Q 262.155 247.204 266.702 247.298 L 266.702 247.298 L 267.64 247.298 Q 270.077 247.298 270.874 246.641 L 270.874 246.641 L 271.062 246.782 L 267.499 255.735 Q 266.843 257.751 265.015 257.751 L 265.015 257.751 Q 262.343 257.751 259.577 256.626 Q 256.812 255.501 254.632 254.516 Q 252.452 253.532 250.484 252.782 Q 248.515 252.032 246.734 251.516 L 246.734 251.516 Q 243.687 250.673 239.327 250.251 Z M 212.702 219.594 L 212.702 219.594 Q 212.702 223.954 214.226 227.68 Q 215.749 231.407 218.421 234.126 L 218.421 234.126 Q 224.14 239.891 232.765 239.891 L 232.765 239.891 Q 241.015 239.891 246.218 234.313 L 246.218 234.313 Q 251.609 228.594 251.609 219.173 L 251.609 219.173 Q 251.609 210.266 246.546 204.313 L 246.546 204.313 Q 241.062 197.938 232.015 197.938 L 232.015 197.938 Q 223.202 197.938 217.765 204.407 L 217.765 204.407 Q 212.702 210.501 212.702 219.594 Z" stroke-linecap="round"/>
</g>
</svg>