<svg xmlns="http://www.w3.org/2000/svg" xmlns:xlink="http://www.w3.org/1999/xlink" version="1.1" width="282.9772pt" height="282.9772pt" viewBox="108.5113856251478 80.38436728073611 282.9772287497044 282.9772287496975" xml:space="preserve">
<desc>Created with Fabric.js 5.3.0</desc>
<defs>
</defs>
<g transform="matrix(3.5695555882 0 0 3.5695555882 250 221.8729816556)" id="yIc7eop9hOiNCqvjh2u7I">
<linearGradient id="SVGID_700" gradientUnits="userSpaceOnUse" gradientTransform="matrix(1 0 0 1 -39.6375993809 -39.6375993809)" x1="21.517553793884474" y1="63.986410252950265" x2="91.73272990567585" y2="21.517554080809816">
<stop offset="0%" style="stop-color:#002D62;stop-opacity: 1"/>
<stop offset="43.30131276359911%" style="stop-color:#2845B0;stop-opacity: 1"/>
<stop offset="100%" style="stop-color:#7C65B0;stop-opacity: 1"/>
</linearGradient>
<path style="stroke: rgb(132,41,54); stroke-width: 0; stroke-dasharray: none; stroke-linecap: butt; stroke-dashoffset: 0; stroke-linejoin: miter; stroke-miterlimit: 4; fill: url(#SVGID_700); fill-rule: nonzero; opacity: 1;" transform=" translate(0, 0)" d="M 0 -39.6376 C 21.87995 -39.6376 39.6376 -21.87996 39.6376 0 C 39.6376 21.87995 21.87996 39.6376 0 39.6376 C -21.87995 39.6376 -39.6376 21.87996 -39.6376 0 C -39.6376 -21.87995 -21.87996 -39.6376 0 -39.6376 z" stroke-linecap="round"/>
</g>
<g transform="matrix(1 0 0 1 248.3911794872 228.272)" id="Fuft8Gr0h66LhvagKyFBc">
<path style="stroke: none; stroke-width: 1; stroke-dasharray: none; stroke-linecap: butt; stroke-dashoffset: 0; stroke-linejoin: miter; stroke-miterlimit: 4; fill: rgb(255,255,255); fill-rule: nonzero; opacity: 1;" transform=" translate(0, 0)" d="M -76.35918 82.192 L -85.51118 82.192 C -89.61784999999999 82.192 -91.78851 79.43467 -92.02318 73.91999999999999 L -92.02318 73.91999999999999 C -92.02318 68.40532999999999 -89.85251 65.64799999999998 -85.51118 65.64799999999998 L -85.51118 65.64799999999998 L -77.76718 65.64799999999998 C -73.66051 65.64799999999998 -70.96185 64.41599999999998 -69.67117999999999 61.951999999999984 L -69.67117999999999 61.951999999999984 L -67.20718 55.43999999999998 L -66.32718 52.62399999999998 L -100.64717999999999 -37.312000000000026 L -100.64717999999999 -37.136000000000024 C -101.58585 -39.95200000000003 -101.38050999999999 -42.357330000000026 -100.03117999999999 -44.352000000000025 C -98.68185 -46.346670000000024 -96.59917999999999 -47.81333000000002 -93.78317999999999 -48.752000000000024 L -93.78317999999999 -48.752000000000024 C -91.67117999999999 -49.33867000000002 -89.96985 -49.632000000000026 -88.67917999999999 -49.632000000000026 L -88.67917999999999 -49.632000000000026 C -85.27650999999999 -49.632000000000026 -83.16450999999999 -47.63733000000003 -82.34317999999999 -43.648000000000025 L -82.34317999999999 -43.648000000000025 L -68.43918 -8.976000000000028 L -56.64717999999999 19.887999999999973 L -37.81517999999999 -43.29600000000002 C -36.75917999999999 -47.520000000000024 -34.29517999999999 -49.63200000000002 -30.42317999999999 -49.63200000000002 L -30.42317999999999 -49.63200000000002 C -29.484509999999993 -49.63200000000002 -27.959179999999993 -49.33867000000002 -25.84717999999999 -48.75200000000002 L -25.84717999999999 -48.75200000000002 C -23.031179999999992 -47.93067000000001 -21.00717999999999 -46.581330000000015 -19.77517999999999 -44.704000000000015 C -18.543179999999992 -42.826670000000014 -18.279179999999993 -40.597330000000014 -18.98317999999999 -38.01600000000001 L -18.98317999999999 -38.01600000000001 C -24.26317999999999 -20.06400000000001 -29.63117999999999 -1.9946700000000135 -35.08717999999999 16.191999999999986 C -40.54317999999999 34.378669999999985 -45.91117999999999 52.38932999999999 -51.19117999999999 70.22399999999999 L -51.19117999999999 70.22399999999999 C -51.77784999999999 71.51467 -52.68717999999999 72.83466999999999 -53.91917999999999 74.18399999999998 C -55.15117999999999 75.53332999999998 -56.76450999999999 76.82399999999998 -58.759179999999986 78.05599999999998 C -60.753849999999986 79.28799999999998 -63.217849999999984 80.28532999999999 -66.15117999999998 81.04799999999999 C -69.08450999999998 81.81066999999999 -72.48717999999998 82.192 -76.35917999999998 82.192 z M 30.12082 39.952 L 59.16082 39.952 C 62.32882 39.952 65.26215 39.10133 67.96082 37.4 C 70.65949 35.69867 72.00882 32.85333 72.00882 28.863999999999997 L 72.00882 28.863999999999997 L 71.65682 -52.624 C 71.65682 -55.55733 70.77682 -58.256 69.01682 -60.72 C 67.25681999999999 -63.184 64.14748999999999 -64.416 59.68881999999999 -64.416 L 59.68881999999999 -64.416 L 30.12081999999999 -64.416 C 25.779489999999992 -64.416 22.69948999999999 -63.184 20.880819999999993 -60.72 C 19.062149999999992 -58.256 18.15281999999999 -55.55733 18.15281999999999 -52.623999999999995 L 18.15281999999999 -52.623999999999995 L 18.15281999999999 27.98400000000001 C 18.15281999999999 31.03467000000001 19.062149999999992 33.79200000000001 20.880819999999993 36.25600000000001 C 22.699489999999994 38.720000000000006 25.779489999999992 39.952000000000005 30.120819999999995 39.952000000000005 z M 60.56882 16.72 L 60.56882 16.72 C 60.56882 20.82667 59.16082 24.287999999999997 56.34482 27.104 C 53.528819999999996 29.919999999999998 50.06749 31.328 45.96082 31.328 L 45.96082 31.328 C 41.971489999999996 31.328 38.568819999999995 29.919999999999998 35.75282 27.104 C 32.93682 24.288 31.52882 20.82667 31.52882 16.72 L 31.52882 16.72 C 31.52882 12.73067 32.93682 9.328 35.75282 6.511999999999999 C 38.56882 3.695999999999999 41.97149 2.2879999999999985 45.96082 2.2879999999999985 L 45.96082 2.2879999999999985 C 50.06749 2.2879999999999985 53.528819999999996 3.6959999999999984 56.34482 6.511999999999999 C 59.16082 9.328 60.56882 12.73067 60.56882 16.72 z M 88.20082 44.704 L 99.46481999999999 56.144 C 100.63815 57.31733 101.22482 58.784 101.22482 60.544 L 101.22482 60.544 C 101.22482 61.48267 100.99015 62.42133 100.52082 63.36 C 100.05149 64.29867 99.28882 65.23733 98.23282 66.176 L 98.23282 66.176 C 96.12082000000001 68.40533 94.24349000000001 69.52 92.60082 69.52 L 92.60082 69.52 C 91.31015 69.52 89.90215 68.75733 88.37682 67.232 L 88.37682 67.232 L 76.23281999999999 55.088 C 71.65682 56.848 67.66748999999999 57.728 64.26481999999999 57.728 L 64.26481999999999 57.728 L 25.896819999999984 57.728 C 22.846149999999984 57.728 19.707489999999986 57.112 16.480819999999984 55.88 C 13.254149999999983 54.648 10.115489999999983 52.91733 7.064819999999983 50.688 L 7.064819999999983 50.688 C 0.7288199999999829 45.99467 -2.4391800000000163 38.896 -2.4391800000000163 29.392000000000003 L -2.4391800000000163 29.392000000000003 L -2.4391800000000163 -54.20799999999999 C -2.4391800000000163 -58.90132999999999 -1.6178500000000162 -63.03732999999999 0.024819999999983633 -66.61599999999999 C 1.6674899999999837 -70.19466999999999 4.014149999999983 -73.09866999999998 7.064819999999983 -75.32799999999999 L 7.064819999999983 -75.32799999999999 L 6.888819999999983 -75.32799999999999 C 9.822149999999983 -77.32266999999999 12.960819999999984 -78.96533 16.304819999999985 -80.25599999999999 C 19.648819999999986 -81.54666999999999 22.846149999999987 -82.19199999999998 25.896819999999984 -82.19199999999998 L 25.896819999999984 -82.19199999999998 L 64.26481999999999 -82.19199999999998 C 67.19814999999998 -82.19199999999998 70.30748999999999 -81.54666999999998 73.59281999999999 -80.25599999999997 C 76.87814999999999 -78.96532999999997 80.04614999999998 -77.32266999999997 83.09682 -75.32799999999997 L 83.09682 -75.32799999999997 L 82.92081999999999 -75.32799999999997 C 85.97148999999999 -73.09866999999997 88.31814999999999 -70.19466999999997 89.96082 -66.61599999999997 C 91.60349 -63.03732999999997 92.42482 -58.90132999999997 92.42482 -54.20799999999997 L 92.42482 -54.20799999999997 L 92.42482 29.392000000000024 C 92.42482 32.20800000000003 92.04348999999999 34.90667000000003 91.28081999999999 37.48800000000003 C 90.51814999999999 40.06933000000003 89.49148999999998 42.47467000000003 88.20082 44.70400000000003 z" stroke-linecap="round"/>
</g>
</svg>